<svg width="20" height="20" viewBox="0 0 20 20" fill="none" xmlns="http://www.w3.org/2000/svg">
<path d="M19.6342 0.365727C19.1465 -0.121909 18.3644 -0.121909 17.8767 0.365727L10 8.24152L2.1233 0.365727C1.63561 -0.121909 0.853462 -0.121909 0.36577 0.365727C-0.121923 0.853364 -0.121923 1.63542 0.36577 2.12306L8.24247 9.99885L0.36577 17.8746C-0.121923 18.3623 -0.121923 19.1443 0.36577 19.632C0.605015 19.8712 0.927076 20 1.23994 20C1.5528 20 1.87486 19.8804 2.1141 19.632L9.9908 11.7562L17.8675 19.632C18.1067 19.8712 18.4288 20 18.7417 20C19.0637 20 19.3766 19.8804 19.6158 19.632C20.1035 19.1443 20.1035 18.3623 19.6158 17.8746L11.7575 9.99885L19.6342 2.12306C20.1219 1.63542 20.1219 0.853364 19.6342 0.365727Z" fill="#2CC9B8"/>
</svg>
